<svg xmlns="http://www.w3.org/2000/svg" width="160.486" height="110.819" viewBox="0 0 160.486 110.819">

<style>


.svg {
  animation:  svg  10s ease infinite;
  transform-box:fill-box ;
  transform-origin: center;

}


@keyframes svg {
 0%{
    transform:  rotate(0deg);
  }

  50%{   
    transform:   rotate(360deg);
  }

  100%{

    transform:  rotate(0deg);
}
}

.svg1 {
  
  animation:  svg1  10s ease infinite;
  transform-box:fill-box ;
  transform-origin: center;
}


@keyframes svg1 {
 0%{
    transform:  rotate(0deg);
  }

  50%{   
    transform:   rotate(-360deg);
  }

  100%{

    transform:  rotate(0deg);
}
}













line {
  stroke-dasharray: 1080;
  stroke-dashoffset: 1080;
  animation: dash 5s  infinite forwards;
  -webkit-animation: dash 5s  infinite forwards;
  animation-timing-function: cubic-bezier(0.195, 0.010, 0.940, 1.030);
  -webkit-animation-timing-function: cubic-bezier(0.195, 0.010, 0.940, 1.030);
	
}

.line:nth-child(even) {
	animation-delay: 1s;
  -webkit-animation-delay: 1s;
}

.line:nth-child(4n+0) {
	animation-delay: 2.2s;
  -webkit-animation-delay: 2.2s;
}

@keyframes dash {
  to {
    stroke-dashoffset: 0;
  }
  90% {
    stroke-dashoffset: 280;

  }
}

@-webkit-keyframes dash {
  to {
    stroke-dashoffset: 0;
  }
  90% {
    stroke-dashoffset: 280;

  }
}

 </style> 












  <g id="logo_green" data-name="logo green" transform="translate(-161.5 -327)">
    <path id="Path_6414" data-name="Path 6414" d="M295.88,421.082c0-.025.013.025.02,0H229.157c8.709,7.629,23.317,15.1,34.843,16.411l-3.515-5.516a3.326,3.326,0,1,1,5.61-3.574l6,9.417A55.18,55.18,0,0,0,304.758,425.8c-3.51-.78-2.066-.461-6.351-1.41C296.6,423.992,295.971,423.179,295.88,421.082Zm17.8-73.138c-.781,3.51-.459,2.063-1.407,6.351a3.326,3.326,0,0,1-6.495-1.439c1.928-8.707.773-3.492,2.408-10.872a55.27,55.27,0,0,0-31.6-14.657l3.515,5.517a3.326,3.326,0,0,1-5.61,3.575l-6-9.418a55.185,55.185,0,0,0-32.663,12.019c3.513.78,2.066.46,6.351,1.409a3.326,3.326,0,1,1-1.439,6.495c-8.731-1.934-3.406-.756-10.869-2.408a55.26,55.26,0,0,0-14.657,31.6l5.516-3.515a3.326,3.326,0,1,1,3.575,5.61l-9.418,6a56.212,56.212,0,0,0,.527,6.069h19.064a37.28,37.28,0,0,1-.83-7.875,36.647,36.647,0,1,1,72.44,7.875h8.779a3.325,3.325,0,0,1,1.42-3.681l9.417-6v0A55.13,55.13,0,0,0,313.68,347.944Z" transform="translate(-28.516)" fill="#70c099"/>
    <path id="Path_6415" data-name="Path 6415" d="M172.508,491.962v-8.756l2.254-.025v8.805l-.123,1.552a5.312,5.312,0,0,1-1.441,2.5,5.425,5.425,0,0,1-3.99,1.626h-.431v-2.082h.332a3.279,3.279,0,0,0,2.4-1.01,3.2,3.2,0,0,0,.739-1.108Zm8.756-.234v2.032H176.3V478.132h2.155v13.6Zm3.14,2.032h-4.138v-2.032H184.4Zm3.276,0h-4.138v-2.032h4.138Zm3.276,0h-4.138v-2.032h4.138Zm3.276,0h-4.138v-2.032h4.138Zm3.276,0H193.37v-2.032h4.138Zm3.276,0h-4.138v-2.032h4.138Zm3.276,0h-4.138v-2.032h4.138Zm3.276,0H203.2v-2.032h4.138Zm3.276,0h-4.138v-2.032h4.138Zm3.276,0h-4.138v-2.032h4.138Zm-.985,0v-2.032h5.062V482.7h2.155v9.027h1.515v2.032Zm2.291,1.256a1.488,1.488,0,0,1,1.059.418,1.372,1.372,0,0,1,0,2.02,1.581,1.581,0,0,1-2.143,0,1.4,1.4,0,0,1,0-2.02,1.492,1.492,0,0,1,1.084-.418Zm3.535,0a1.46,1.46,0,0,1,1.059.418,1.4,1.4,0,0,1,0,2.02,1.462,1.462,0,0,1-1.059.418,1.492,1.492,0,0,1-1.084-.418,1.4,1.4,0,0,1,0-2.02,1.49,1.49,0,0,1,1.084-.418Zm6.047-1.256h-4.138v-2.032h4.138Zm4.963-3.042a3.285,3.285,0,0,0,2.266,1.01h5.406v2.032h-13.62v-2.032h4a4.748,4.748,0,0,1-1.232-3.51,5.591,5.591,0,0,1,11.182,0v.32h-2.254a3.613,3.613,0,0,0-1-2.673,3.331,3.331,0,0,0-4.735.006,3.322,3.322,0,0,0-.991,2.445,3.263,3.263,0,0,0,.973,2.4Zm.85-10.85a1.339,1.339,0,0,1,.443-1.01,1.58,1.58,0,0,1,2.143,0,1.4,1.4,0,0,1,0,2.02,1.58,1.58,0,0,1-2.143,0,1.339,1.339,0,0,1-.443-1.01Zm16.157,13.522a4.7,4.7,0,0,1,1.958-1.33,4.936,4.936,0,0,1-1.786-3.842,5.591,5.591,0,0,1,11.182,0v.32h-2.254a3.611,3.611,0,0,0-1-2.673,3.331,3.331,0,0,0-4.735.006,3.322,3.322,0,0,0-.991,2.445,3.39,3.39,0,0,0,3.239,3.411h6.995v2.032h-8.768a3.39,3.39,0,0,0-3.239,3.411v.554h-2.2v-.455a5.283,5.283,0,0,1,1.6-3.88Zm15.763.37h-4.138v-2.032h4.138Zm3.276,0h-4.138v-2.032h4.138Zm3.276,0H264.92v-2.032h4.138Zm3.276,0H268.2v-2.032h4.138Zm3.276,0h-4.138v-2.032h4.138Zm3.276,0h-4.138v-2.032h4.138Zm1.811-2.032v-13.6h2.179v5.936l-.111.234a5.585,5.585,0,0,1,9.544,3.916,4.748,4.748,0,0,1-1.232,3.51h2.488v2.032H277.9v-2.032Zm6.17,0a3.39,3.39,0,0,0,3.239-3.411,3.322,3.322,0,0,0-.991-2.445,3.222,3.222,0,0,0-2.358-.991,3.785,3.785,0,0,0-2.377.739,3.566,3.566,0,0,0-1.5,2.648v3.461Zm9.852,2.032h-4.138v-2.032h4.138Zm3.054-2.032a5.153,5.153,0,0,1-1.268-3.51,5.334,5.334,0,0,1,1.632-3.91,5.585,5.585,0,0,1,9.55,3.91,5.282,5.282,0,0,1-1.6,3.879,5.338,5.338,0,0,1-3.744,1.663h-8.609v-2.032Zm2-.985a3.18,3.18,0,0,0,1.933.961h.862v.012a2.949,2.949,0,0,0,1.946-1,3.263,3.263,0,0,0,.973-2.4,3.322,3.322,0,0,0-.991-2.445,3.33,3.33,0,0,0-4.741,0,3.321,3.321,0,0,0-.991,2.445,3.281,3.281,0,0,0,1.01,2.426Zm.628-12.3a1.462,1.462,0,0,1,1.059.419,1.4,1.4,0,0,1,0,2.02,1.462,1.462,0,0,1-1.059.419,1.519,1.519,0,0,1-1.084-.419,1.372,1.372,0,0,1,0-2.02,1.519,1.519,0,0,1,1.084-.419Zm3.522,0a1.488,1.488,0,0,1,1.059.419,1.371,1.371,0,0,1,0,2.02,1.58,1.58,0,0,1-2.143,0,1.4,1.4,0,0,1,0-2.02,1.493,1.493,0,0,1,1.084-.419Z" transform="translate(-3.175 -83.066)" fill="#515151"/>
    <path id="Path_6416" data-name="Path 6416" d="M293.928,398.153a5.207,5.207,0,1,1-5.432,8.885,5.513,5.513,0,0,1-2.174-4.475.321.321,0,0,1,.488-.294l3,1.837a.318.318,0,0,0,.287.024l1.967-.79a.32.32,0,0,0,.2-.327l-.2-2.108a.319.319,0,0,0-.152-.244l-3-1.837a.321.321,0,0,1,.039-.568A5.511,5.511,0,0,1,293.928,398.153Z" transform="translate(-67.78 -38.804)" fill="#70c099"/>
    <path id="Path_6417" data-name="Path 6417" d="M303.855,413.726l-2.148-1.313,1.917-3.135,2.147,1.313a.342.342,0,0,1,.113.469l-1.561,2.553A.341.341,0,0,1,303.855,413.726Z" transform="translate(-76.236 -45.222)" fill="#70c099"/>
    <path id="Path_6418" data-name="Path 6418" d="M378.631,447.417a5.207,5.207,0,1,1,5.432-8.885,5.513,5.513,0,0,1,2.174,4.474.321.321,0,0,1-.488.294l-3-1.837a.321.321,0,0,0-.287-.024l-1.967.79a.32.32,0,0,0-.2.327l.195,2.108a.322.322,0,0,0,.152.244l3,1.836a.321.321,0,0,1-.039.568A5.511,5.511,0,0,1,378.631,447.417Z" transform="translate(-117.145 -60.88)" fill="#70c099"/>
    <path id="Path_6419" data-name="Path 6419" d="M375.872,438.806l2.147,1.313-1.917,3.136-2.148-1.313a.341.341,0,0,1-.113-.469l1.561-2.553A.342.342,0,0,1,375.872,438.806Z" transform="translate(-115.856 -61.423)" fill="#70c099"/>
    
  <g class="svg1">
  
    <path id="Path_6420" data-name="Path 6420" d="M324.745,391.832a5.864,5.864,0,1,1-3.213-7.645A5.865,5.865,0,0,1,324.745,391.832Zm3.733-1.839-1.236-.482a.3.3,0,0,1-.191-.265,7.328,7.328,0,0,0-.186-1.351.3.3,0,0,1,.112-.307l1.06-.795a.3.3,0,0,0,.1-.342,9.037,9.037,0,0,0-.39-.926.3.3,0,0,0-.316-.163l-1.309.2a.29.29,0,0,1-.294-.137,7.981,7.981,0,0,0-.837-1.076.3.3,0,0,1-.058-.322l.521-1.22a.305.305,0,0,0-.08-.348,9.511,9.511,0,0,0-.8-.6.3.3,0,0,0-.354.016l-1.034.831a.3.3,0,0,1-.326.028c-.2-.1-.406-.2-.62-.284s-.428-.163-.642-.23a.3.3,0,0,1-.211-.249l-.159-1.316a.3.3,0,0,0-.243-.262,9.541,9.541,0,0,0-1-.127.3.3,0,0,0-.3.191l-.479,1.239a.3.3,0,0,1-.265.189,7.7,7.7,0,0,0-1.354.185.3.3,0,0,1-.306-.112l-.8-1.06a.3.3,0,0,0-.339-.1,8.744,8.744,0,0,0-.926.389.3.3,0,0,0-.166.317l.2,1.309a.3.3,0,0,1-.135.3,7.569,7.569,0,0,0-1.079.833.29.29,0,0,1-.319.058l-1.22-.521a.3.3,0,0,0-.348.08,9.445,9.445,0,0,0-.607.8.3.3,0,0,0,.016.354l.83,1.035a.3.3,0,0,1,.032.325c-.1.2-.2.406-.287.62s-.163.428-.227.642a.3.3,0,0,1-.252.211l-1.316.16a.305.305,0,0,0-.262.242,8.967,8.967,0,0,0-.124,1,.3.3,0,0,0,.192.3l1.235.479a.3.3,0,0,1,.188.268,8,8,0,0,0,.186,1.351.3.3,0,0,1-.109.307l-1.06.795a.3.3,0,0,0-.105.338,9.818,9.818,0,0,0,.39.93.3.3,0,0,0,.316.163l1.309-.2a.3.3,0,0,1,.3.134,7.548,7.548,0,0,0,.837,1.08.3.3,0,0,1,.057.322l-.52,1.22a.29.29,0,0,0,.08.345,8.711,8.711,0,0,0,.8.607.3.3,0,0,0,.358-.016l1.034-.831a.3.3,0,0,1,.326-.032,6.606,6.606,0,0,0,.616.287c.214.087.428.163.645.23a.3.3,0,0,1,.211.249l.157,1.316a.3.3,0,0,0,.242.262,9.542,9.542,0,0,0,1,.128.3.3,0,0,0,.3-.2l.482-1.235a.3.3,0,0,1,.265-.189,7.606,7.606,0,0,0,1.35-.185.309.309,0,0,1,.31.109l.792,1.06a.3.3,0,0,0,.341.105,9.418,9.418,0,0,0,.926-.39.3.3,0,0,0,.163-.316l-.2-1.309a.3.3,0,0,1,.137-.3,7.722,7.722,0,0,0,1.076-.837.308.308,0,0,1,.322-.057l1.22.524a.305.305,0,0,0,.348-.08c.214-.255.415-.524.607-.8a.3.3,0,0,0-.019-.358l-.83-1.032a.306.306,0,0,1-.029-.329c.1-.2.2-.405.284-.616s.163-.428.23-.642a.3.3,0,0,1,.249-.214l1.319-.157a.3.3,0,0,0,.259-.243,9.771,9.771,0,0,0,.128-1A.3.3,0,0,0,328.478,389.993Z" transform="translate(-80.774 -29.274)" fill="#939393"/>
  </g>
   <g class="svg"> 
    <path id="Path_6421" data-name="Path 6421" d="M349.781,422.3a5.864,5.864,0,1,1-5.084-6.553A5.863,5.863,0,0,1,349.781,422.3Zm3.391-2.5a.307.307,0,0,0-.265-.24l-1.319-.144a.3.3,0,0,1-.25-.207,7.889,7.889,0,0,0-.53-1.258.3.3,0,0,1,.029-.326l.818-1.041a.3.3,0,0,0,.013-.354,9.352,9.352,0,0,0-.617-.795.3.3,0,0,0-.348-.077l-1.214.533a.3.3,0,0,1-.322-.055,7.423,7.423,0,0,0-1.085-.824.3.3,0,0,1-.137-.3l.188-1.312a.309.309,0,0,0-.169-.316,9.133,9.133,0,0,0-.93-.377.3.3,0,0,0-.338.109l-.785,1.07a.3.3,0,0,1-.307.112q-.33-.072-.671-.115c-.23-.029-.457-.048-.68-.054a.3.3,0,0,1-.268-.188l-.495-1.229a.3.3,0,0,0-.3-.189,8.491,8.491,0,0,0-1,.135.3.3,0,0,0-.24.262l-.144,1.319a.3.3,0,0,1-.211.252,7.627,7.627,0,0,0-1.255.53.3.3,0,0,1-.326-.029l-1.041-.817a.307.307,0,0,0-.358-.013,9.744,9.744,0,0,0-.795.616.3.3,0,0,0-.074.348l.534,1.213a.3.3,0,0,1-.054.319,7.615,7.615,0,0,0-.827,1.089.3.3,0,0,1-.294.137l-1.316-.189a.3.3,0,0,0-.313.169,9.107,9.107,0,0,0-.38.929.3.3,0,0,0,.109.339l1.07.785a.3.3,0,0,1,.115.307q-.072.33-.115.67t-.057.681a.3.3,0,0,1-.186.268l-1.233.495a.3.3,0,0,0-.188.3,9.231,9.231,0,0,0,.137,1,.3.3,0,0,0,.262.239l1.319.144a.3.3,0,0,1,.252.21,7.835,7.835,0,0,0,.526,1.255.3.3,0,0,1-.025.326l-.817,1.041a.3.3,0,0,0-.013.358,9.348,9.348,0,0,0,.617.792.293.293,0,0,0,.348.077l1.211-.533a.3.3,0,0,1,.322.054,7.825,7.825,0,0,0,1.085.827.3.3,0,0,1,.141.294l-.188,1.316a.3.3,0,0,0,.166.313c.3.141.613.268.932.38a.3.3,0,0,0,.339-.109l.782-1.07a.3.3,0,0,1,.309-.115c.218.048.444.086.671.115s.454.048.68.054a.3.3,0,0,1,.268.188l.492,1.23a.3.3,0,0,0,.3.192,9.6,9.6,0,0,0,1-.137.3.3,0,0,0,.239-.262l.144-1.319a.3.3,0,0,1,.207-.252,7.662,7.662,0,0,0,1.258-.53.3.3,0,0,1,.326.029l1.041.817a.3.3,0,0,0,.354.013,8.839,8.839,0,0,0,.8-.616.3.3,0,0,0,.077-.348l-.534-1.21a.3.3,0,0,1,.054-.322,7.535,7.535,0,0,0,.824-1.086.3.3,0,0,1,.3-.141l1.312.189a.3.3,0,0,0,.316-.166,9.493,9.493,0,0,0,.377-.933.3.3,0,0,0-.109-.338l-1.07-.782a.3.3,0,0,1-.112-.31c.048-.22.086-.444.115-.671s.045-.454.055-.68a.3.3,0,0,1,.188-.268l1.229-.495a.294.294,0,0,0,.188-.3A8.783,8.783,0,0,0,353.172,419.8Z" transform="translate(-94.324 -46.84)" fill="#939393"/>
   </g>
    
    <g class="svg1">
      <path id="Path_6422" data-name="Path 6422" d="M313.206,425.232a4.446,4.446,0,1,1-3.854-4.969A4.448,4.448,0,0,1,313.206,425.232Zm2.587-1.814a.345.345,0,0,0-.3-.278l-.84-.09a.345.345,0,0,1-.287-.236,5.962,5.962,0,0,0-.345-.817.346.346,0,0,1,.032-.371l.521-.664a.341.341,0,0,0,.013-.409c-.112-.159-.233-.316-.361-.466a.343.343,0,0,0-.4-.09l-.77.342a.349.349,0,0,1-.37-.061,5.333,5.333,0,0,0-.706-.536.349.349,0,0,1-.157-.338l.122-.837a.347.347,0,0,0-.2-.361c-.176-.08-.358-.153-.543-.22a.345.345,0,0,0-.393.121l-.5.683a.348.348,0,0,1-.348.131c-.144-.032-.291-.055-.437-.073s-.3-.032-.444-.038a.345.345,0,0,1-.3-.214l-.316-.782a.339.339,0,0,0-.348-.218c-.195.016-.39.045-.581.077a.354.354,0,0,0-.278.3l-.089.84a.344.344,0,0,1-.236.287,5.992,5.992,0,0,0-.817.345.346.346,0,0,1-.37-.032l-.664-.521a.341.341,0,0,0-.409-.016c-.159.115-.316.236-.466.361a.348.348,0,0,0-.089.4l.342.769a.34.34,0,0,1-.064.367,5.715,5.715,0,0,0-.533.705.344.344,0,0,1-.338.16l-.837-.122a.343.343,0,0,0-.361.195c-.08.176-.154.358-.221.543a.342.342,0,0,0,.122.39l.683.5a.346.346,0,0,1,.131.348c-.032.144-.054.29-.073.437s-.032.294-.039.441a.345.345,0,0,1-.214.306l-.785.313a.345.345,0,0,0-.214.348c.016.2.045.39.077.581a.345.345,0,0,0,.3.277l.84.093a.346.346,0,0,1,.287.236,6.23,6.23,0,0,0,.345.817.345.345,0,0,1-.032.37l-.52.664a.339.339,0,0,0-.016.408c.115.16.236.313.36.463a.343.343,0,0,0,.4.09l.77-.338a.345.345,0,0,1,.367.06,6.067,6.067,0,0,0,.706.536.345.345,0,0,1,.159.339l-.121.833a.348.348,0,0,0,.2.364c.176.08.358.153.543.22a.344.344,0,0,0,.39-.125l.5-.68a.347.347,0,0,1,.348-.131c.144.029.29.055.437.074s.294.031.441.038a.341.341,0,0,1,.306.214l.313.782a.347.347,0,0,0,.348.218c.2-.019.39-.045.581-.08a.34.34,0,0,0,.278-.3l.092-.84a.346.346,0,0,1,.236-.287,6.076,6.076,0,0,0,.817-.345.347.347,0,0,1,.371.032l.664.521a.339.339,0,0,0,.408.013c.16-.112.313-.233.463-.361a.339.339,0,0,0,.09-.4l-.339-.77a.35.35,0,0,1,.061-.37,5.947,5.947,0,0,0,.536-.706.349.349,0,0,1,.339-.157l.833.122a.352.352,0,0,0,.364-.195c.08-.176.154-.358.22-.543a.347.347,0,0,0-.124-.393l-.68-.5a.348.348,0,0,1-.131-.348c.029-.144.054-.291.073-.437s.032-.3.038-.444a.34.34,0,0,1,.214-.3l.782-.316a.341.341,0,0,0,.217-.348C315.853,423.8,315.828,423.61,315.793,423.418Z" transform="translate(-76.241 -49.793)" fill="#939393"/>
    </g>
    <path id="Path_6423" data-name="Path 6423" d="M347.128,429.264a1.445,1.445,0,1,1,1.443-1.443A1.443,1.443,0,0,1,347.128,429.264Zm0-4.815a19.648,19.648,0,0,0-6.754,1.348l.019,3.612,2.124.163a3.394,3.394,0,0,1,2.858,2.861l.163,2.12h3.177l.166-2.12a3.394,3.394,0,0,1,2.858-2.861l2.12-.163.019-3.612A19.644,19.644,0,0,0,347.128,424.449Z" transform="translate(-97.489 -53.56)" fill="#939393"/>
    <path id="Path_6424" data-name="Path 6424" d="M315.561,429.907a1.531,1.531,0,1,1-.587.117A1.521,1.521,0,0,1,315.561,429.907Z" transform="translate(-83.008 -56.56)" fill="#939393"/>
    <path id="Path_6425" data-name="Path 6425" d="M327.782,395.669a2.416,2.416,0,0,1,2.369,2.887,2.379,2.379,0,0,1-.137.454,2.419,2.419,0,0,1-1.307,1.307,2.417,2.417,0,0,1-1.849,0,2.419,2.419,0,0,1-1.445-1.761,2.416,2.416,0,0,1,.661-2.179,2.416,2.416,0,0,1,1.708-.708Z" transform="translate(-89.24 -37.742)" fill="#939393"/>
    <line id="Line_334" data-name="Line 334" x2="157.486" transform="translate(163 390.284)" fill="none" stroke="#70c099" stroke-linecap="round" stroke-linejoin="round" stroke-width="3"/>
    <line id="Line_335" data-name="Line 335" x2="157.486" transform="translate(163 421.081)" fill="none" stroke="#70c099" stroke-linecap="round" stroke-linejoin="round" stroke-width="3"/>
  </g>
</svg>
