<svg xmlns="http://www.w3.org/2000/svg" width="257.759" height="179.267" viewBox="0 0 257.759 179.267">
  <g id="logo_green" data-name="logo green" transform="translate(-161.5 -327)">
    <path id="Path_6414" data-name="Path 6414" d="M345.908,479.191c0-.041.02.04.032,0H237.974c14.089,12.342,37.719,24.432,56.363,26.547l-5.686-8.923a5.38,5.38,0,1,1,9.076-5.782l9.705,15.234a89.262,89.262,0,0,0,52.837-19.442c-5.678-1.263-3.342-.746-10.274-2.28C347.075,483.9,346.056,482.585,345.908,479.191ZM374.7,360.88c-1.263,5.678-.742,3.338-2.277,10.274a5.381,5.381,0,0,1-10.506-2.328c3.118-14.084,1.25-5.649,3.895-17.587a89.408,89.408,0,0,0-51.126-23.71l5.686,8.924a5.381,5.381,0,0,1-9.076,5.783L301.595,327a89.269,89.269,0,0,0-52.837,19.443c5.682,1.262,3.342.745,10.274,2.28a5.381,5.381,0,1,1-2.328,10.506c-14.124-3.129-5.509-1.222-17.583-3.895a89.391,89.391,0,0,0-23.709,51.122l8.923-5.686a5.381,5.381,0,1,1,5.783,9.076l-15.235,9.709a90.936,90.936,0,0,0,.853,9.817h30.838a60.308,60.308,0,0,1-1.342-12.739,59.282,59.282,0,1,1,117.182,12.739h14.2a5.378,5.378,0,0,1,2.3-5.954l15.234-9.705v0A89.181,89.181,0,0,0,374.7,360.88Z" transform="translate(-14.083 0)" fill="#70c099"/>
    <path id="Path_6416" data-name="Path 6416" d="M298.627,398.493a8.423,8.423,0,1,1-8.788,14.373c-2.369-1.449-3.379-4.528-3.517-7.238a.52.52,0,0,1,.789-.475l4.859,2.971a.515.515,0,0,0,.464.039l3.182-1.278a.518.518,0,0,0,.323-.529l-.316-3.41a.516.516,0,0,0-.245-.395l-4.859-2.971a.52.52,0,0,1,.063-.919C293.057,397.549,296.258,397.044,298.627,398.493Z" transform="translate(-33.475 -19.164)" fill="#70c099"/>
    <path id="Path_6417" data-name="Path 6417" d="M305.182,416.473l-3.475-2.124,3.1-5.071,3.474,2.124a.553.553,0,0,1,.184.759l-2.525,4.129A.552.552,0,0,1,305.182,416.473Z" transform="translate(-37.651 -22.334)" fill="#70c099"/>
    <path id="Path_6418" data-name="Path 6418" d="M380.171,453.378a8.423,8.423,0,1,1,8.788-14.373c2.369,1.449,3.379,4.528,3.518,7.238a.52.52,0,0,1-.789.475l-4.859-2.971a.52.52,0,0,0-.464-.039l-3.182,1.278a.518.518,0,0,0-.323.529l.315,3.41a.52.52,0,0,0,.246.395l4.859,2.97a.52.52,0,0,1-.063.919C385.741,454.322,382.541,454.827,380.171,453.378Z" transform="translate(-57.855 -30.067)" fill="#70c099"/>
    <path id="Path_6419" data-name="Path 6419" d="M377.157,438.837l3.474,2.124-3.1,5.072-3.475-2.125a.552.552,0,0,1-.183-.759l2.524-4.129A.553.553,0,0,1,377.157,438.837Z" transform="translate(-57.218 -30.336)" fill="#70c099"/>
    <path id="Path_6420" data-name="Path 6420" d="M333.876,398.978a9.486,9.486,0,1,1-5.2-12.367A9.488,9.488,0,0,1,333.876,398.978ZM339.914,396l-2-.78a.481.481,0,0,1-.31-.428,11.855,11.855,0,0,0-.3-2.185.484.484,0,0,1,.181-.5l1.714-1.286a.485.485,0,0,0,.166-.553,14.633,14.633,0,0,0-.631-1.5.48.48,0,0,0-.511-.263l-2.118.325a.47.47,0,0,1-.475-.222,12.913,12.913,0,0,0-1.354-1.741.488.488,0,0,1-.093-.522l.842-1.974a.493.493,0,0,0-.129-.562,15.407,15.407,0,0,0-1.3-.977.483.483,0,0,0-.573.026l-1.673,1.344a.487.487,0,0,1-.527.046c-.326-.165-.656-.32-1-.46s-.692-.263-1.038-.372a.477.477,0,0,1-.341-.4l-.258-2.129a.483.483,0,0,0-.393-.423,15.441,15.441,0,0,0-1.612-.206.487.487,0,0,0-.486.31l-.774,2a.493.493,0,0,1-.429.305,12.454,12.454,0,0,0-2.19.3.481.481,0,0,1-.5-.181l-1.287-1.715a.486.486,0,0,0-.548-.165,14.134,14.134,0,0,0-1.5.629.489.489,0,0,0-.269.512l.326,2.117a.488.488,0,0,1-.218.481,12.245,12.245,0,0,0-1.746,1.348.469.469,0,0,1-.517.093l-1.973-.842a.492.492,0,0,0-.563.129,15.265,15.265,0,0,0-.981,1.3.489.489,0,0,0,.026.573l1.343,1.674a.485.485,0,0,1,.052.526c-.17.326-.325.656-.465,1s-.263.692-.366,1.038a.482.482,0,0,1-.408.341l-2.128.259a.494.494,0,0,0-.424.392,14.5,14.5,0,0,0-.2,1.612.482.482,0,0,0,.31.486l2,.774a.489.489,0,0,1,.3.434,12.932,12.932,0,0,0,.3,2.185.48.48,0,0,1-.176.5l-1.715,1.286a.48.48,0,0,0-.171.547,15.874,15.874,0,0,0,.63,1.5.488.488,0,0,0,.511.263l2.118-.325a.48.48,0,0,1,.48.216,12.211,12.211,0,0,0,1.354,1.746.484.484,0,0,1,.093.522l-.841,1.974a.468.468,0,0,0,.129.557,14.1,14.1,0,0,0,1.291.981.49.49,0,0,0,.579-.026l1.673-1.343a.491.491,0,0,1,.527-.052,10.673,10.673,0,0,0,1,.465c.346.14.692.264,1.043.372a.485.485,0,0,1,.341.4L322,409.9a.492.492,0,0,0,.392.423,15.435,15.435,0,0,0,1.612.207.485.485,0,0,0,.485-.315l.78-2a.487.487,0,0,1,.429-.305,12.3,12.3,0,0,0,2.184-.3.5.5,0,0,1,.5.176l1.282,1.715a.487.487,0,0,0,.552.17,15.233,15.233,0,0,0,1.5-.63.479.479,0,0,0,.264-.511l-.326-2.117a.492.492,0,0,1,.222-.481,12.491,12.491,0,0,0,1.74-1.354.5.5,0,0,1,.522-.093l1.974.847a.494.494,0,0,0,.563-.13c.346-.413.671-.847.981-1.3a.489.489,0,0,0-.031-.579l-1.343-1.669a.5.5,0,0,1-.047-.532c.165-.32.32-.656.46-1s.263-.692.372-1.038a.487.487,0,0,1,.4-.346l2.134-.253a.488.488,0,0,0,.418-.393,15.806,15.806,0,0,0,.207-1.612A.489.489,0,0,0,339.914,396Z" transform="translate(-39.892 -14.458)" fill="#939393"/>
    <path id="Path_6421" data-name="Path 6421" d="M359.148,428.527a9.486,9.486,0,1,1-8.224-10.6A9.485,9.485,0,0,1,359.148,428.527Zm5.486-4.05a.5.5,0,0,0-.429-.388l-2.133-.232a.486.486,0,0,1-.4-.335,12.765,12.765,0,0,0-.857-2.036.489.489,0,0,1,.047-.527l1.323-1.684a.489.489,0,0,0,.02-.573,15.137,15.137,0,0,0-1-1.286.483.483,0,0,0-.562-.124l-1.964.863a.485.485,0,0,1-.522-.088,12.007,12.007,0,0,0-1.756-1.333.483.483,0,0,1-.222-.48l.3-2.123a.5.5,0,0,0-.273-.511,14.766,14.766,0,0,0-1.5-.61.48.48,0,0,0-.547.176l-1.271,1.73a.485.485,0,0,1-.5.181q-.534-.117-1.085-.186c-.372-.047-.739-.077-1.1-.088a.489.489,0,0,1-.434-.3l-.8-1.989a.481.481,0,0,0-.485-.305,13.737,13.737,0,0,0-1.612.218.487.487,0,0,0-.388.423L346.254,415a.484.484,0,0,1-.341.408,12.341,12.341,0,0,0-2.03.858.489.489,0,0,1-.527-.047l-1.684-1.322a.5.5,0,0,0-.578-.02,15.754,15.754,0,0,0-1.286,1,.484.484,0,0,0-.119.563l.863,1.963a.477.477,0,0,1-.088.517,12.317,12.317,0,0,0-1.338,1.762.482.482,0,0,1-.476.222l-2.128-.305a.486.486,0,0,0-.506.274,14.727,14.727,0,0,0-.615,1.5.488.488,0,0,0,.176.548l1.73,1.271a.482.482,0,0,1,.186.5q-.116.534-.186,1.084t-.093,1.1a.478.478,0,0,1-.3.434l-1.994.8a.484.484,0,0,0-.3.486,14.927,14.927,0,0,0,.222,1.612.478.478,0,0,0,.424.387l2.133.233a.489.489,0,0,1,.408.34,12.675,12.675,0,0,0,.852,2.03.477.477,0,0,1-.041.527l-1.322,1.684a.482.482,0,0,0-.021.579,15.124,15.124,0,0,0,1,1.281.474.474,0,0,0,.562.124l1.958-.863a.485.485,0,0,1,.522.087,12.66,12.66,0,0,0,1.756,1.338.478.478,0,0,1,.227.475l-.3,2.128a.481.481,0,0,0,.269.506c.49.227.992.433,1.508.615a.491.491,0,0,0,.548-.176l1.266-1.73a.488.488,0,0,1,.5-.186c.352.077.718.139,1.085.186s.734.077,1.1.087a.489.489,0,0,1,.434.3l.8,1.989a.493.493,0,0,0,.491.31,15.545,15.545,0,0,0,1.612-.222.483.483,0,0,0,.387-.424l.233-2.133a.484.484,0,0,1,.335-.408,12.4,12.4,0,0,0,2.036-.857.488.488,0,0,1,.527.047l1.684,1.322a.49.49,0,0,0,.573.02,14.306,14.306,0,0,0,1.286-1,.493.493,0,0,0,.124-.563l-.863-1.958a.485.485,0,0,1,.088-.522,12.192,12.192,0,0,0,1.332-1.757.488.488,0,0,1,.481-.227l2.123.305a.49.49,0,0,0,.511-.269,15.348,15.348,0,0,0,.609-1.509.481.481,0,0,0-.176-.547l-1.73-1.266a.49.49,0,0,1-.181-.5c.077-.356.14-.718.186-1.085s.072-.734.088-1.1a.483.483,0,0,1,.3-.434l1.989-.8a.476.476,0,0,0,.3-.485A14.2,14.2,0,0,0,364.634,424.477Z" transform="translate(-46.584 -23.133)" fill="#939393"/>
    <path id="Path_6422" data-name="Path 6422" d="M320.3,429.949a7.193,7.193,0,1,1-6.234-8.037A7.195,7.195,0,0,1,320.3,429.949Zm4.184-2.934a.559.559,0,0,0-.485-.45l-1.359-.145a.558.558,0,0,1-.465-.382,9.644,9.644,0,0,0-.558-1.322.56.56,0,0,1,.052-.6l.842-1.074a.551.551,0,0,0,.02-.661c-.181-.258-.377-.511-.584-.754a.555.555,0,0,0-.645-.145l-1.245.553a.564.564,0,0,1-.6-.1,8.625,8.625,0,0,0-1.142-.868.564.564,0,0,1-.253-.547l.2-1.354a.561.561,0,0,0-.315-.584c-.284-.13-.578-.248-.878-.356a.559.559,0,0,0-.635.2l-.806,1.105a.564.564,0,0,1-.563.212c-.232-.052-.47-.088-.707-.119s-.481-.052-.718-.062a.558.558,0,0,1-.49-.346l-.511-1.265a.548.548,0,0,0-.563-.352c-.315.026-.63.073-.94.125a.572.572,0,0,0-.45.491l-.144,1.358a.557.557,0,0,1-.382.465,9.689,9.689,0,0,0-1.322.558.559.559,0,0,1-.6-.052l-1.075-.842a.552.552,0,0,0-.662-.026c-.258.186-.511.383-.754.584a.563.563,0,0,0-.144.651l.553,1.244a.551.551,0,0,1-.1.594,9.237,9.237,0,0,0-.863,1.141.556.556,0,0,1-.547.259l-1.354-.2a.554.554,0,0,0-.584.315c-.13.284-.248.579-.357.878a.554.554,0,0,0,.2.63l1.105.811a.559.559,0,0,1,.211.563c-.051.232-.087.47-.118.707s-.052.476-.063.713a.558.558,0,0,1-.346.5l-1.271.506a.559.559,0,0,0-.346.563c.026.321.072.63.125.941a.557.557,0,0,0,.49.449l1.359.15a.559.559,0,0,1,.465.383,10.08,10.08,0,0,0,.557,1.322.557.557,0,0,1-.052.6l-.841,1.075a.549.549,0,0,0-.026.661c.186.259.382.506.583.749a.555.555,0,0,0,.651.145l1.245-.547a.557.557,0,0,1,.594.1,9.809,9.809,0,0,0,1.142.868.558.558,0,0,1,.258.548l-.2,1.348a.563.563,0,0,0,.315.589c.284.129.578.248.878.356a.556.556,0,0,0,.63-.2l.811-1.1a.561.561,0,0,1,.563-.212c.232.047.47.088.707.12s.476.051.713.062a.551.551,0,0,1,.5.345l.506,1.265a.562.562,0,0,0,.563.352c.32-.031.63-.072.94-.129a.549.549,0,0,0,.449-.486l.149-1.359a.559.559,0,0,1,.383-.465,9.83,9.83,0,0,0,1.322-.558.562.562,0,0,1,.6.052l1.075.842a.549.549,0,0,0,.661.02c.259-.181.506-.377.749-.584a.548.548,0,0,0,.145-.646l-.548-1.245a.566.566,0,0,1,.1-.6,9.624,9.624,0,0,0,.868-1.142.565.565,0,0,1,.548-.253l1.348.2a.569.569,0,0,0,.589-.315c.129-.284.248-.579.356-.879a.561.561,0,0,0-.2-.635l-1.1-.806a.563.563,0,0,1-.212-.563c.047-.232.087-.47.119-.707s.052-.48.062-.718a.549.549,0,0,1,.346-.491l1.265-.511a.551.551,0,0,0,.351-.563C324.586,427.64,324.544,427.325,324.487,427.015Z" transform="translate(-37.654 -24.592)" fill="#939393"/>
    <path id="Path_6423" data-name="Path 6423" d="M351.3,432.239a2.338,2.338,0,1,1,2.334-2.335A2.334,2.334,0,0,1,351.3,432.239Zm0-7.79a31.783,31.783,0,0,0-10.925,2.18l.031,5.842,3.435.263a5.49,5.49,0,0,1,4.623,4.628l.264,3.43h5.139l.269-3.43a5.49,5.49,0,0,1,4.623-4.628l3.429-.263.031-5.842A31.777,31.777,0,0,0,351.3,424.449Z" transform="translate(-48.147 -26.452)" fill="#939393"/>
    <path id="Path_6424" data-name="Path 6424" d="M316.508,429.907a2.477,2.477,0,1,1-.95.189A2.46,2.46,0,0,1,316.508,429.907Z" transform="translate(-40.996 -27.934)" fill="#939393"/>
    <path id="Path_6425" data-name="Path 6425" d="M329.274,395.669a3.91,3.91,0,0,1,3.611,2.412,3.913,3.913,0,0,1,0,2.991,3.914,3.914,0,0,1-2.115,2.115,3.91,3.91,0,0,1-2.991,0,3.913,3.913,0,0,1-2.338-2.849,3.909,3.909,0,0,1,1.07-3.525,3.908,3.908,0,0,1,2.763-1.145Z" transform="translate(-44.073 -18.64)" fill="#939393"/>
    <line id="Line_334" data-name="Line 334" x2="254.759" transform="translate(163 429.372)" fill="none" stroke="#70c099" stroke-linecap="round" stroke-linejoin="round" stroke-width="3"/>
    <line id="Line_335" data-name="Line 335" x2="254.759" transform="translate(163 479.191)" fill="none" stroke="#70c099" stroke-linecap="round" stroke-linejoin="round" stroke-width="3"/>
  </g>
</svg>
