<svg xmlns="http://www.w3.org/2000/svg" width="89.334" height="88.685" viewBox="0 0 89.334 88.685">
  <g id="XMLID_958_" transform="translate(-127.2 -204.1)" opacity="0.45">
    <circle id="XMLID_1044_" cx="2.108" cy="2.108" r="2.108" transform="translate(128.7 205.6)" fill="#70c099" stroke="#70c099" stroke-width="3"/>
    <circle id="XMLID_959_" cx="2.108" cy="2.108" r="2.108" transform="translate(156.1 205.6)" fill="#70c099" stroke="#70c099" stroke-width="3"/>
    <circle id="XMLID_1042_" cx="2.108" cy="2.108" r="2.108" transform="translate(183.419 205.6)" fill="#70c099" stroke="#70c099" stroke-width="3"/>
    <circle id="XMLID_1041_" cx="2.108" cy="2.108" r="2.108" transform="translate(210.818 205.6)" fill="#70c099" stroke="#70c099" stroke-width="3"/>
    <circle id="XMLID_1040_" cx="2.108" cy="2.108" r="2.108" transform="translate(128.7 232.757)" fill="#70c099" stroke="#70c099" stroke-width="3"/>
    <circle id="XMLID_960_" cx="2.108" cy="2.108" r="2.108" transform="translate(156.1 232.757)" fill="#70c099" stroke="#70c099" stroke-width="3"/>
    <circle id="XMLID_1038_" cx="2.108" cy="2.108" r="2.108" transform="translate(183.419 232.757)" fill="#70c099" stroke="#70c099" stroke-width="3"/>
    <circle id="XMLID_1037_" cx="2.108" cy="2.108" r="2.108" transform="translate(210.818 232.757)" fill="#70c099" stroke="#70c099" stroke-width="3"/>
    <circle id="XMLID_1036_" cx="2.108" cy="2.108" r="2.108" transform="translate(128.7 259.913)" fill="#70c099" stroke="#70c099" stroke-width="3"/>
    <circle id="XMLID_961_" cx="2.108" cy="2.108" r="2.108" transform="translate(156.1 259.913)" fill="#70c099" stroke="#70c099" stroke-width="3"/>
    <circle id="XMLID_1034_" cx="2.108" cy="2.108" r="2.108" transform="translate(183.419 259.913)" fill="#70c099" stroke="#70c099" stroke-width="3"/>
    <circle id="XMLID_1033_" cx="2.108" cy="2.108" r="2.108" transform="translate(210.818 259.913)" fill="#70c099" stroke="#70c099" stroke-width="3"/>
    <circle id="XMLID_1032_" cx="2.108" cy="2.108" r="2.108" transform="translate(128.7 287.07)" fill="#70c099" stroke="#70c099" stroke-width="3"/>
    <circle id="XMLID_962_" cx="2.108" cy="2.108" r="2.108" transform="translate(156.1 287.07)" fill="#70c099" stroke="#70c099" stroke-width="3"/>
    <circle id="XMLID_1030_" cx="2.108" cy="2.108" r="2.108" transform="translate(183.419 287.07)" fill="#70c099" stroke="#70c099" stroke-width="3"/>
    <circle id="XMLID_1029_" cx="2.108" cy="2.108" r="2.108" transform="translate(210.818 287.07)" fill="#70c099" stroke="#70c099" stroke-width="3"/>
  </g>
</svg>
